# xmcd CD database file
#
# Track frame offsets:
#	182
#	12937
#	22937
#	31602
#	43590
#	57520
#	67112
#	78722
#	90040
#	100232
#	109632
#	122672
#	132800
#	142240
#	153807
#	165287
#	177942
#	187812
#	198675
#	214310
#
# Disc length: 2988 seconds
#
# Revision: 6
# Processed by: cddbd v1.5.2PL0 Copyright (c) Steve Scherf et al.
# Submitted via: CDex 1.51
#
DISCID=040baa14
DTITLE=Various Artist - Country and Western Vol. 1
DYEAR=1987
DGENRE=Country
TTITLE0=Johnny Cash - Folsom Prison Blues
TTITLE1=Johnny Cash - Hey Porter
TTITLE2=Conway Twitty - Blue Is The Way I Feel
TTITLE3=Conway Twitty - You Made Me What I Am
TTITLE4=Willie Nelson - Home Is Where You're Happy
TTITLE5=Willes Nelson - I'm Building Heartaches
TTITLE6=Patsy Cline - I've Loved And Lost Again
TTITLE7=Patsy Cline - Just Out Of Reach
TTITLE8=Faron Young - Hello Walls
TTITLE9=Faron Young - I Cant Help It
TTITLE10=Don Williams - Where Do We Go From Here
TTITLE11=Don Williams - Take My Hand For A While
TTITLE12=George Jones - Wolds Worst Looser
TTITLE13=George Jones - Take My Hand For A While
TTITLE14=Johnny Paycheck - I Don't Need To Know That Right Know
TTITLE15=Johnny Paycheck - Georgia In A Jug
TTITLE16=Dolly Parton - Please, Release Me
TTITLE17=Dolly Parton - It Wasn't God Who Made Honky Tonk Angels
TTITLE18=Ray Pillow - How Do I Hide From A Memory
TTITLE19=Ray Pillow - We're Together Again
EXTD=\n YEAR: 1987
EXTT0=
EXTT1=
EXTT2=
EXTT3=
EXTT4=
EXTT5=
EXTT6=
EXTT7=
EXTT8=
EXTT9=
EXTT10=
EXTT11=
EXTT12=
EXTT13=
EXTT14=
EXTT15=
EXTT16=
EXTT17=
EXTT18=
EXTT19=
PLAYORDER=
